<svg xmlns="http://www.w3.org/2000/svg" viewBox="0 0 512 512">
  <defs>
    <linearGradient id="gOuter" x1="0" y1="1" x2="0" y2="0">
      <stop offset="0%" stop-color="#F97316"/>
      <stop offset="55%" stop-color="#F0570F"/>
      <stop offset="100%" stop-color="#D93B06"/>
    </linearGradient>
    <linearGradient id="gMid" x1="0" y1="1" x2="0" y2="0">
      <stop offset="0%" stop-color="#FBBF24"/>
      <stop offset="60%" stop-color="#F97316"/>
      <stop offset="100%" stop-color="#F0500F"/>
    </linearGradient>
    <linearGradient id="gCore" x1="0" y1="1" x2="0" y2="0">
      <stop offset="0%" stop-color="#FFF6C9"/>
      <stop offset="45%" stop-color="#FFE87A"/>
      <stop offset="100%" stop-color="#FBBF24"/>
    </linearGradient>
    <radialGradient id="gBlue" cx="50%" cy="50%" r="50%">
      <stop offset="0%" stop-color="#67E8F9" stop-opacity="0.9"/>
      <stop offset="55%" stop-color="#0EA5B7" stop-opacity="0.5"/>
      <stop offset="100%" stop-color="#0EA5B7" stop-opacity="0"/>
    </radialGradient>
  </defs>
  <rect width="512" height="512" rx="92" fill="#0B2536"/>
  <circle cx="256" cy="256" r="200" fill="none" stroke="#0EA5B7" stroke-width="21"/>
  <g transform="translate(456,256) rotate(90)"><path d="M28 0 L-41 -33 L-41 33 Z" fill="#0EA5B7"/></g>
  <g transform="translate(56,256) rotate(270)"><path d="M28 0 L-41 -33 L-41 33 Z" fill="#0EA5B7"/></g>
  <g transform="translate(256,256) scale(3.3) translate(-50,-49)">
    <ellipse cx="50" cy="83" rx="16" ry="8.5" fill="url(#gBlue)"/>
    <path d="M50 8 C53 15 59 20 63 28 C68 36 71 44 71 56 C71 74 62 88 50 88 C38 88 29 74 29 56 C29 44 32 36 37 28 C41 20 47 15 50 8 Z" fill="url(#gOuter)"/>
    <path d="M50 24 C54 31 60 37 62 46 C64.5 55 63 66 58 73 C55.5 77 53 79 50 79 C47 79 44.5 77 42 73 C37 66 35.5 55 38 46 C40 37 46 31 50 24 Z" fill="url(#gMid)"/>
    <path d="M50 46 C53 52 57 56 57.5 63 C58 70 55 76 50 76 C45 76 42 70 42.5 63 C43 56 47 52 50 46 Z" fill="url(#gCore)"/>
    <path d="M38 76 C39.5 84 44.5 88 50 88 C55.5 88 60.5 84 62 76 C59 82 54.5 85 50 85 C45.5 85 41 82 38 76 Z" fill="#22D3EE" opacity="0.85"/>
  </g>
</svg>
